<svg width="98" height="32" viewBox="0 0 98 32" fill="none" xmlns="http://www.w3.org/2000/svg">
<path d="M97.19 -0.000305176L91.931 31.6773H83.3929L88.6519 -0.000305176H97.19Z" fill="#242424"/>
<path d="M63.8883 31.9866C62.1972 31.9866 60.7123 31.5432 59.4336 30.6564C58.1653 29.7696 57.2527 28.4239 56.6959 26.6194C56.1494 24.8148 56.103 22.5411 56.5567 19.7982C57.031 16.9315 57.8611 14.6011 59.047 12.8068C60.2431 11.0126 61.6146 9.69785 63.1613 8.86261C64.7184 8.02736 66.2806 7.60973 67.848 7.60973C69.0235 7.60973 70.0186 7.81597 70.8332 8.22843C71.6582 8.63059 72.313 9.17196 72.7976 9.85253C73.2823 10.5228 73.6122 11.2601 73.7875 12.0644H73.9113L75.9221 -0.000305176H84.4602L79.2012 31.6773H70.725L71.3746 27.7794H71.189C70.725 28.5837 70.132 29.3056 69.4102 29.9449C68.6987 30.5739 67.8789 31.074 66.9509 31.4452C66.0228 31.8062 65.002 31.9866 63.8883 31.9866ZM68.1264 25.4284C68.9101 25.4284 69.6216 25.2015 70.2609 24.7478C70.9003 24.2838 71.4416 23.6341 71.885 22.7989C72.3284 21.9533 72.6429 20.9531 72.8286 19.7982C73.0245 18.6226 73.0399 17.6172 72.875 16.782C72.71 15.9364 72.38 15.292 71.885 14.8486C71.4004 14.3948 70.7662 14.168 69.9825 14.168C69.1988 14.168 68.4925 14.3948 67.8635 14.8486C67.2345 15.292 66.7034 15.9364 66.2703 16.782C65.8475 17.6172 65.5382 18.6226 65.3423 19.7982C65.1463 20.9737 65.1206 21.9843 65.2649 22.8298C65.4196 23.6651 65.7393 24.3095 66.2239 24.7633C66.7086 25.2067 67.3427 25.4284 68.1264 25.4284Z" fill="#242424"/>
<path d="M10.7654 18.3133L8.53809 31.6773H0L5.25897 -0.000305176H13.4877L11.446 12.4356H11.6935C12.4669 10.9198 13.5496 9.7391 14.9417 8.89354C16.3337 8.03767 17.9114 7.60974 19.6747 7.60974C21.3452 7.60974 22.7373 7.99127 23.851 8.75433C24.9646 9.5174 25.7535 10.5692 26.2175 11.9097C26.6815 13.2502 26.7692 14.7867 26.4805 16.519L23.9438 31.6773H15.4057L17.633 18.3133C17.8186 17.1378 17.6691 16.2149 17.1845 15.5446C16.7101 14.8743 15.9316 14.5392 14.8489 14.5392C14.1477 14.5392 13.5083 14.6939 12.9309 15.0032C12.3637 15.3023 11.8894 15.7354 11.5079 16.3025C11.1366 16.8593 10.8892 17.5296 10.7654 18.3133Z" fill="#242424"/>
<path fill-rule="evenodd" clip-rule="evenodd" d="M33.1063 30.469C34.7768 31.4899 36.901 32.0003 39.479 32.0003C42.0569 32.0003 44.3461 31.4899 46.3466 30.469C48.3574 29.4378 50.0072 28.0045 51.2962 26.169C52.5852 24.3232 53.4307 22.1835 53.8329 19.75C54.235 17.3164 54.0958 15.1819 53.4152 13.3464C52.745 11.5006 51.5746 10.0673 49.9041 9.04643C48.2439 8.01526 46.13 7.49968 43.5624 7.49968C40.9742 7.49968 38.6747 8.01526 36.6639 9.04643C34.6531 10.0673 33.0084 11.5006 31.7297 13.3464C30.4511 15.1819 29.6107 17.3164 29.2085 19.75C28.8064 22.1835 28.9404 24.3232 29.6107 26.169C30.2809 28.0045 31.4462 29.4378 33.1063 30.469ZM43.2263 13.5567C43.2264 13.3043 42.6127 13.3043 42.4895 13.5567C41.8179 14.9325 40.7859 16.6885 39.5221 17.6806C38.2582 18.6727 36.3074 19.2582 34.8116 19.5839C34.5371 19.6436 34.3914 20.2399 34.6366 20.2996C35.9733 20.6253 37.6378 21.2108 38.4167 22.2029C39.1955 23.195 39.369 24.951 39.3679 26.3268C39.3677 26.5792 39.9815 26.5792 40.1047 26.3268C40.7762 24.951 41.8082 23.195 43.0721 22.2029C44.3359 21.2108 46.2867 20.6253 47.7826 20.2996C48.057 20.2399 48.2028 19.6436 47.9576 19.5839C46.6209 19.2582 44.9563 18.6727 44.1775 17.6806C43.3987 16.6885 43.2252 14.9325 43.2263 13.5567Z" fill="#242424"/>
</svg>
